<svg width="24" height="24" viewBox="0 0 24 24" fill="none" xmlns="http://www.w3.org/2000/svg">
<path d="M23.5234 11.3105C20.9841 5.96144 17.1457 3.26947 12.0002 3.26947C6.85194 3.26947 3.01623 5.96143 0.476941 11.3132C0.375089 11.5289 0.322266 11.7644 0.322266 12.003C0.322266 12.2415 0.375089 12.477 0.476941 12.6927C3.01623 18.0418 6.85462 20.7338 12.0002 20.7338C17.1484 20.7338 20.9841 18.0418 23.5234 12.69C23.7296 12.2561 23.7296 11.7525 23.5234 11.3105ZM12.0002 18.8052C7.67962 18.8052 4.51623 16.6141 2.28498 12.0016C4.51623 7.38911 7.67962 5.19804 12.0002 5.19804C16.3207 5.19804 19.4841 7.38911 21.7153 12.0016C19.4868 16.6141 16.3234 18.8052 12.0002 18.8052ZM11.893 7.28733C9.28944 7.28733 7.17873 9.39804 7.17873 12.0016C7.17873 14.6052 9.28944 16.7159 11.893 16.7159C14.4966 16.7159 16.6073 14.6052 16.6073 12.0016C16.6073 9.39804 14.4966 7.28733 11.893 7.28733ZM11.893 15.0016C10.235 15.0016 8.89301 13.6596 8.89301 12.0016C8.89301 10.3436 10.235 9.00161 11.893 9.00161C13.551 9.00161 14.893 10.3436 14.893 12.0016C14.893 13.6596 13.551 15.0016 11.893 15.0016Z" fill="#8C8C8C"/>
</svg>
